<svg xmlns="http://www.w3.org/2000/svg" version="1.1" width="400.000000" height="400.000000">
  <path d=""  style="fill:black" />
  <path d=""  style="fill:black" />
  <path d=""  style="fill:black" />
  <path d=""  style="fill:black" />
  <path d="M200.000000 399.036945 L230.161372 396.936389 L232.442335 393.897644 L200.000000 396.157056 L200.000000 399.036945 M169.838628 396.936389 L200.000000 399.036945 "  style="fill:black" />
  <path d="M200.000000 391.388067 L234.410861 388.991559 L236.047991 382.265382 L200.000000 384.775907 L200.000000 391.388067 L200.000000 396.157056 L167.557665 393.897644 L165.589139 388.991559 L200.000000 391.388067 "  style="fill:black" />
  <path d="M200.000000 376.384253 L237.337960 373.783890 L238.268343 363.628764 L200.000000 366.293922 L200.000000 376.384253 L200.000000 384.775907 L163.952009 382.265382 L162.662040 373.783890 L200.000000 376.384253 "  style="fill:black" />
  <path d="M200.000000 354.602091 L238.830182 351.897804 L239.018064 338.703985 L200.000000 341.421356 L200.000000 354.602091 L200.000000 366.293922 L161.731657 363.628764 L161.169818 351.897804 L200.000000 354.602091 "  style="fill:black" />
  <path d="M200.000000 326.878657 L238.830182 324.174370 L238.268343 308.448888 L200.000000 311.114047 L200.000000 326.878657 L200.000000 341.421356 L160.981936 338.703985 L161.169818 324.174370 L200.000000 326.878657 "  style="fill:black" />
  <path d="M200.000000 294.279347 L237.337960 291.678985 L236.047991 274.026162 L200.000000 276.536686 L200.000000 294.279347 L200.000000 311.114047 L161.731657 308.448888 L162.662040 291.678985 L200.000000 294.279347 "  style="fill:black" />
  <path d="M200.000000 258.056935 L234.410861 255.660428 L232.442335 236.758652 L200.000000 239.018064 L200.000000 258.056935 L200.000000 276.536686 L163.952009 274.026162 L165.589139 255.660428 L200.000000 258.056935 "  style="fill:black" />
  <path d="M200.000000 219.603428 L230.161372 217.502871 L227.589938 198.078528 L200.000000 200.000000 L200.000000 219.603428 L200.000000 239.018064 L167.557665 236.758652 L169.838628 217.502871 L200.000000 219.603428 "  style="fill:black" />
  <path d="M200.000000 180.396572 L224.752798 178.672690 L221.677275 159.472245 L200.000000 160.981936 L200.000000 180.396572 L200.000000 200.000000 L172.410062 198.078528 L175.247202 178.672690 L200.000000 180.396572 "  style="fill:black" />
  <path d="M200.000000 141.943065 L218.392988 140.662104 L214.931567 122.423420 L200.000000 123.463314 L200.000000 141.943065 L200.000000 160.981936 L178.322725 159.472245 L181.607012 140.662104 L200.000000 141.943065 "  style="fill:black" />
  <path d="M200.000000 105.720653 L211.326346 104.931841 L207.612047 88.355820 L200.000000 88.885953 L200.000000 105.720653 L200.000000 123.463314 L185.068433 122.423420 L188.673654 104.931841 L200.000000 105.720653 "  style="fill:black" />
  <path d="M200.000000 73.121343 L203.824439 72.854994 L200.000000 58.578644 L200.000000 58.578644 L200.000000 73.121343 L200.000000 88.885953 L192.387953 88.355820 L196.175561 72.854994 L200.000000 73.121343 "  style="fill:black" />
  <path d=""  style="fill:black" />
  <path d=""  style="fill:black" />
  <path d=""  style="fill:black" />
  <path d=""  style="fill:black" />
  <path d="M259.163659 390.715442 L285.892320 380.613172 L292.387953 376.339979 L263.637929 387.206236 L259.163659 390.715442 M230.161372 396.936389 L259.163659 390.715442 "  style="fill:black" />
  <path d="M267.499331 381.894132 L297.993840 370.368536 L302.655993 362.756350 L270.710678 374.830288 L267.499331 381.894132 L263.637929 387.206236 L232.442335 393.897644 L234.410861 388.991559 L267.499331 381.894132 "  style="fill:black" />
  <path d="M273.241042 366.082733 L306.329513 353.576732 L308.979021 342.918086 L275.066056 355.735710 L273.241042 366.082733 L270.710678 374.830288 L236.047991 382.265382 L237.337960 373.783890 L273.241042 366.082733 "  style="fill:black" />
  <path d="M276.168141 343.888868 L310.579002 330.883061 L311.114047 317.587560 L276.536686 330.656296 L276.168141 343.888868 L275.066056 355.735710 L238.268343 363.628764 L238.830182 351.897804 L276.168141 343.888868 "  style="fill:black" />
  <path d="M276.168141 316.165434 L310.579002 303.159627 L308.979021 287.738210 L275.066056 300.555834 L276.168141 316.165434 L276.536686 330.656296 L239.018064 338.703985 L238.830182 324.174370 L276.168141 316.165434 "  style="fill:black" />
  <path d="M273.241042 283.977827 L306.329513 271.471827 L302.655993 254.517130 L270.710678 266.591068 L273.241042 283.977827 L275.066056 300.555834 L238.268343 308.448888 L237.337960 291.678985 L273.241042 283.977827 "  style="fill:black" />
  <path d="M267.499331 248.563000 L297.993840 237.037404 L292.387953 219.200987 L263.637929 230.067244 L267.499331 248.563000 L270.710678 266.591068 L236.047991 274.026162 L234.410861 255.660428 L267.499331 248.563000 "  style="fill:black" />
  <path d="M259.163659 211.281924 L285.892320 201.179655 L278.569496 183.146961 L254.119610 192.387953 L259.163659 211.281924 L263.637929 230.067244 L232.442335 236.758652 L230.161372 217.502871 L259.163659 211.281924 "  style="fill:black" />
  <path d="M248.554360 173.567290 L270.490005 165.276572 L261.731657 147.740588 L242.521505 155.001189 L248.554360 173.567290 L254.119610 192.387953 L227.589938 198.078528 L224.752798 178.672690 L248.554360 173.567290 "  style="fill:black" />
  <path d="M236.079144 136.868451 L252.378799 130.707891 L242.521505 114.342515 L229.289322 119.343704 L236.079144 136.868451 L242.521505 155.001189 L221.677275 159.472245 L218.392988 140.662104 L236.079144 136.868451 "  style="fill:black" />
  <path d="M222.217427 102.595721 L232.254705 98.802067 L221.677275 84.236210 L214.931567 86.785794 L222.217427 102.595721 L229.289322 119.343704 L214.931567 122.423420 L211.326346 104.931841 L222.217427 102.595721 "  style="fill:black" />
  <path d="M207.501907 72.066183 L210.891081 70.785223 L200.000000 58.578644 L200.000000 58.578644 L207.501907 72.066183 L214.931567 86.785794 L207.612047 88.355820 L203.824439 72.854994 L207.501907 72.066183 "  style="fill:black" />
  <path d=""  style="fill:black" />
  <path d=""  style="fill:black" />
  <path d=""  style="fill:black" />
  <path d=""  style="fill:black" />
  <path d="M317.587560 361.716457 M285.892320 380.613172 "  style="fill:black" />
  <path d="M324.722501 354.857692 L346.658146 335.957675 L353.635551 326.708359 L330.656296 346.507563 L324.722501 354.857692 L317.587560 361.716457 L292.387953 376.339979 L297.993840 370.368536 L324.722501 354.857692 "  style="fill:black" />
  <path d="M335.331800 336.746486 L359.133362 316.238772 L363.098631 304.649743 L338.703985 325.668466 L335.331800 336.746486 L330.656296 346.507563 L302.655993 362.756350 L306.329513 353.576732 L335.331800 336.746486 "  style="fill:black" />
  <path d="M340.740374 313.380190 L365.493172 292.052879 L366.293922 278.569496 L341.421356 300.000000 L340.740374 313.380190 L338.703985 325.668466 L308.979021 342.918086 L310.579002 330.883061 L340.740374 313.380190 "  style="fill:black" />
  <path d="M340.740374 285.656756 L365.493172 264.329445 L363.098631 249.469867 L338.703985 270.488590 L340.740374 285.656756 L341.421356 300.000000 L311.114047 317.587560 L310.579002 303.159627 L340.740374 285.656756 "  style="fill:black" />
  <path d="M335.331800 254.641581 L359.133362 234.133867 L353.635551 218.469139 L330.656296 238.268343 L335.331800 254.641581 L338.703985 270.488590 L308.979021 287.738210 L306.329513 271.471827 L335.331800 254.641581 "  style="fill:black" />
  <path d="M324.722501 221.526561 L346.658146 202.626543 L338.268343 186.758652 L317.587560 204.577465 L324.722501 221.526561 L330.656296 238.268343 L302.655993 254.517130 L297.993840 237.037404 L324.722501 221.526561 "  style="fill:black" />
  <path d="M309.320187 187.584287 L328.546940 171.018283 L317.587560 155.557023 L300.000000 170.710678 L309.320187 187.584287 L317.587560 204.577465 L292.387953 219.200987 L285.892320 201.179655 L309.320187 187.584287 "  style="fill:black" />
  <path d="M289.716759 154.119142 L305.495748 140.523774 L292.387953 126.063313 L278.569496 137.969463 L289.716759 154.119142 L300.000000 170.710678 L278.569496 183.146961 L270.490005 165.276572 L289.716759 154.119142 "  style="fill:black" />
  <path d="M266.665566 122.417172 L278.390412 112.314903 L263.637929 99.410948 L254.119610 107.612047 L266.665566 122.417172 L278.569496 137.969463 L261.731657 147.740588 L252.378799 130.707891 L266.665566 122.417172 "  style="fill:black" />
  <path d="M241.052453 93.696668 L248.272578 87.475721 L232.442335 76.624164 L227.589938 80.805048 L241.052453 93.696668 L254.119610 107.612047 L242.521505 114.342515 L232.254705 98.802067 L241.052453 93.696668 "  style="fill:black" />
  <path d="M213.861717 69.061340 L216.299655 66.960784 L200.000000 58.578644 L200.000000 58.578644 L213.861717 69.061340 L227.589938 80.805048 L221.677275 84.236210 L210.891081 70.785223 L213.861717 69.061340 "  style="fill:black" />
  <path d=""  style="fill:black" />
  <path d=""  style="fill:black" />
  <path d=""  style="fill:black" />
  <path d=""  style="fill:black" />
  <path d=""  style="fill:black" />
  <path d="M346.658146 335.957675 "  style="fill:black" />
  <path d="M376.819518 292.841691 M381.225489 280.669655 L376.819518 292.841691 M353.635551 326.708359 L359.133362 316.238772 L376.819518 292.841691 "  style="fill:black" />
  <path d="M383.886160 267.720726 L395.212506 241.318802 L396.157056 227.589938 L384.775907 254.119610 L383.886160 267.720726 L381.225489 280.669655 L363.098631 304.649743 L365.493172 292.052879 L383.886160 267.720726 "  style="fill:black" />
  <path d="M383.886160 239.997292 L395.212506 213.595368 L392.387953 199.469867 L381.225489 225.489779 L383.886160 239.997292 L384.775907 254.119610 L366.293922 278.569496 L365.493172 264.329445 L383.886160 239.997292 "  style="fill:black" />
  <path d="M376.819518 210.736785 L387.710599 185.349472 L381.225489 171.370169 L370.710678 195.880390 L376.819518 210.736785 L381.225489 225.489779 L363.098631 249.469867 L359.133362 234.133867 L376.819518 210.736785 "  style="fill:black" />
  <path d="M362.957801 181.063669 L372.995079 157.666587 L363.098631 144.370699 L353.635551 166.429315 L362.957801 181.063669 L370.710678 195.880390 L353.635551 218.469139 L346.658146 202.626543 L362.957801 181.063669 "  style="fill:black" />
  <path d="M342.833707 152.118266 L351.631455 131.610552 L338.703985 119.509032 L330.656296 138.268343 L342.833707 152.118266 L353.635551 166.429315 L338.268343 186.758652 L328.546940 171.018283 L342.833707 152.118266 "  style="fill:black" />
  <path d="M317.220594 125.012930 L324.440719 108.182685 L308.979021 97.740588 L302.655993 112.479684 L317.220594 125.012930 L330.656296 138.268343 L317.587560 155.557023 L305.495748 140.523774 L317.220594 125.012930 "  style="fill:black" />
  <path d="M287.102759 100.789306 L292.467796 88.283305 L275.066056 79.901916 L270.710678 90.054382 L287.102759 100.789306 L302.655993 112.479684 L292.387953 126.063313 L278.390412 112.314903 L287.102759 100.789306 "  style="fill:black" />
  <path d="M253.637614 80.378293 L256.941388 72.677136 L238.268343 66.678545 L236.047991 71.854228 L253.637614 80.378293 L270.710678 90.054382 L263.637929 99.410948 L248.272578 87.475721 L253.637614 80.378293 "  style="fill:black" />
  <path d="M218.111206 64.564276 L219.226754 61.963913 L200.000000 58.578644 L200.000000 58.578644 L218.111206 64.564276 L236.047991 71.854228 L232.442335 76.624164 L216.299655 66.960784 L218.111206 64.564276 "  style="fill:black" />
  <path d=""  style="fill:black" />
  <path d=""  style="fill:black" />
  <path d=""  style="fill:black" />
  <path d=""  style="fill:black" />
  <path d=""  style="fill:black" />
  <path d=""  style="fill:black" />
  <path d=""  style="fill:black" />
  <path d="M400.000000 200.000000 M395.212506 241.318802 "  style="fill:black" />
  <path d="M399.036945 186.138283 M392.387953 145.350257 L396.157056 172.410062 L399.036945 186.138283 L400.000000 200.000000 L396.157056 227.589938 L395.212506 213.595368 L399.036945 186.138283 "  style="fill:black" />
  <path d="M391.388067 158.947547 L387.710599 132.545623 L381.225489 120.390611 L384.775907 145.880390 L391.388067 158.947547 L396.157056 172.410062 L392.387953 199.469867 L387.710599 185.349472 L391.388067 158.947547 "  style="fill:black" />
  <path d="M376.384253 133.334434 L372.995079 109.002281 L363.098631 98.490309 L366.293922 121.430504 L376.384253 133.334434 L384.775907 145.880390 L381.225489 171.370169 L372.995079 157.666587 L376.384253 133.334434 "  style="fill:black" />
  <path d="M354.602091 110.283241 L351.631455 88.955931 L338.703985 80.490968 L341.421356 100.000000 L354.602091 110.283241 L366.293922 121.430504 L363.098631 144.370699 L351.631455 131.610552 L354.602091 110.283241 "  style="fill:black" />
  <path d="M326.878657 90.679813 L324.440719 73.176942 L308.979021 67.084292 L311.114047 82.412440 L326.878657 90.679813 L341.421356 100.000000 L338.703985 119.509032 L324.440719 108.182685 L326.878657 90.679813 "  style="fill:black" />
  <path d="M294.279347 75.277499 L292.467796 62.271692 L275.066056 58.785491 L276.536686 69.343704 L294.279347 75.277499 L311.114047 82.412440 L308.979021 97.740588 L292.467796 88.283305 L294.279347 75.277499 "  style="fill:black" />
  <path d="M258.056935 64.668200 L256.941388 56.659264 L238.268343 55.913486 L239.018064 61.296015 L258.056935 64.668200 L276.536686 69.343704 L275.066056 79.901916 L256.941388 72.677136 L258.056935 64.668200 "  style="fill:black" />
  <path d="M219.603428 59.259626 L219.226754 56.555339 L200.000000 58.578644 L200.000000 58.578644 L219.603428 59.259626 L239.018064 61.296015 L238.268343 66.678545 L219.226754 61.963913 L219.603428 59.259626 "  style="fill:black" />
  <path d=""  style="fill:black" />
  <path d=""  style="fill:black" />
  <path d=""  style="fill:black" />
  <path d=""  style="fill:black" />
  <path d=""  style="fill:black" />
  <path d=""  style="fill:black" />
  <path d=""  style="fill:black" />
  <path d=""  style="fill:black" />
  <path d=""  style="fill:black" />
  <path d="M370.710678 95.880390 M392.387953 145.350257 L387.710599 132.545623 "  style="fill:black" />
  <path d="M362.957801 85.605199 M338.268343 56.102356 L353.635551 76.431693 L362.957801 85.605199 L370.710678 95.880390 L381.225489 120.390611 L372.995079 109.002281 L362.957801 85.605199 "  style="fill:black" />
  <path d="M342.833707 68.448217 L328.546940 49.548200 L317.587560 44.442977 L330.656296 61.731657 L342.833707 68.448217 L353.635551 76.431693 L363.098631 98.490309 L351.631455 88.955931 L342.833707 68.448217 "  style="fill:black" />
  <path d="M317.220594 56.346696 L305.495748 40.835853 L292.387953 38.761567 L302.655993 52.345195 L317.220594 56.346696 L330.656296 61.731657 L338.703985 80.490968 L324.440719 73.176942 L317.220594 56.346696 "  style="fill:black" />
  <path d="M287.102759 49.765691 L278.390412 38.240095 L263.637929 39.276459 L270.710678 48.633025 L287.102759 49.765691 L302.655993 52.345195 L308.979021 67.084292 L292.467796 62.271692 L287.102759 49.765691 "  style="fill:black" />
  <path d="M253.637614 48.958106 L248.272578 41.860679 L232.442335 45.967867 L236.047991 50.737803 L253.637614 48.958106 L270.710678 48.633025 L275.066056 58.785491 L256.941388 56.659264 L253.637614 48.958106 "  style="fill:black" />
  <path d="M218.111206 53.954977 L216.299655 51.558469 L200.000000 58.578644 L200.000000 58.578644 L218.111206 53.954977 L236.047991 50.737803 L238.268343 55.913486 L219.226754 56.555339 L218.111206 53.954977 "  style="fill:black" />
  <path d=""  style="fill:black" />
  <path d=""  style="fill:black" />
  <path d=""  style="fill:black" />
  <path d=""  style="fill:black" />
  <path d=""  style="fill:black" />
  <path d=""  style="fill:black" />
  <path d=""  style="fill:black" />
  <path d=""  style="fill:black" />
  <path d=""  style="fill:black" />
  <path d=""  style="fill:black" />
  <path d=""  style="fill:black" />
  <path d="M309.320187 32.982196 M278.569496 16.853039 L300.000000 29.289322 L309.320187 32.982196 M338.268343 56.102356 L328.546940 49.548200 L309.320187 32.982196 "  style="fill:black" />
  <path d="M289.716759 27.240485 L270.490005 16.083055 L261.731657 17.084292 L278.569496 26.855416 L289.716759 27.240485 L300.000000 29.289322 L317.587560 44.442977 L305.495748 40.835853 L289.716759 27.240485 "  style="fill:black" />
  <path d="M266.665566 28.137825 L252.378799 19.847107 L242.521505 24.344892 L254.119610 31.075360 L266.665566 28.137825 L278.569496 26.855416 L292.387953 38.761567 L278.390412 38.240095 L266.665566 28.137825 "  style="fill:black" />
  <path d="M241.052453 35.639732 L232.254705 30.534333 L221.677275 38.355820 L227.589938 41.786983 L241.052453 35.639732 L254.119610 31.075360 L263.637929 39.276459 L248.272578 41.860679 L241.052453 35.639732 "  style="fill:black" />
  <path d="M213.861717 49.457912 L210.891081 47.734030 L200.000000 58.578644 L200.000000 58.578644 L213.861717 49.457912 L227.589938 41.786983 L232.442335 45.967867 L216.299655 51.558469 L213.861717 49.457912 "  style="fill:black" />
  <path d=""  style="fill:black" />
  <path d=""  style="fill:black" />
  <path d=""  style="fill:black" />
  <path d=""  style="fill:black" />
  <path d=""  style="fill:black" />
  <path d=""  style="fill:black" />
  <path d=""  style="fill:black" />
  <path d=""  style="fill:black" />
  <path d=""  style="fill:black" />
  <path d=""  style="fill:black" />
  <path d=""  style="fill:black" />
  <path d="M227.589938 1.921472 L254.119610 7.612047 "  style="fill:black" />
  <path d="M248.554360 7.792336 L224.752798 2.686937 L221.677275 5.352635 L242.521505 9.823691 L248.554360 7.792336 L254.119610 7.612047 L278.569496 16.853039 L270.490005 16.083055 L248.554360 7.792336 "  style="fill:black" />
  <path d="M236.079144 13.686547 L218.392988 9.892893 L214.931567 16.263987 L229.289322 19.343704 L236.079144 13.686547 L242.521505 9.823691 L261.731657 17.084292 L252.378799 19.847107 L236.079144 13.686547 "  style="fill:black" />
  <path d="M222.217427 26.740679 L211.326346 24.404558 L207.612047 34.236210 L214.931567 35.806237 L222.217427 26.740679 L229.289322 19.343704 L242.521505 24.344892 L232.254705 30.534333 L222.217427 26.740679 "  style="fill:black" />
  <path d="M207.501907 46.453070 L203.824439 45.664258 L200.000000 58.578644 L200.000000 58.578644 L207.501907 46.453070 L214.931567 35.806237 L221.677275 38.355820 L210.891081 47.734030 L207.501907 46.453070 "  style="fill:black" />
  <path d=""  style="fill:black" />
  <path d=""  style="fill:black" />
  <path d=""  style="fill:black" />
  <path d=""  style="fill:black" />
  <path d=""  style="fill:black" />
  <path d=""  style="fill:black" />
  <path d=""  style="fill:black" />
  <path d=""  style="fill:black" />
  <path d=""  style="fill:black" />
  <path d=""  style="fill:black" />
  <path d=""  style="fill:black" />
  <path d="M172.410062 1.921472 "  style="fill:black" />
  <path d="M200.000000 0.963055 L175.247202 2.686937 L178.322725 5.352635 L200.000000 3.842944 L200.000000 0.963055 M227.589938 1.921472 L224.752798 2.686937 L200.000000 0.963055 "  style="fill:black" />
  <path d="M200.000000 8.611933 L181.607012 9.892893 L185.068433 16.263987 L200.000000 15.224093 L200.000000 8.611933 L200.000000 3.842944 L221.677275 5.352635 L218.392988 9.892893 L200.000000 8.611933 "  style="fill:black" />
  <path d="M200.000000 23.615747 L188.673654 24.404558 L192.387953 34.236210 L200.000000 33.706078 L200.000000 23.615747 L200.000000 15.224093 L214.931567 16.263987 L211.326346 24.404558 L200.000000 23.615747 "  style="fill:black" />
  <path d="M200.000000 45.397909 L196.175561 45.664258 L200.000000 58.578644 L200.000000 58.578644 L200.000000 45.397909 L200.000000 33.706078 L207.612047 34.236210 L203.824439 45.664258 L200.000000 45.397909 "  style="fill:black" />
  <path d=""  style="fill:black" />
  <path d=""  style="fill:black" />
  <path d=""  style="fill:black" />
  <path d=""  style="fill:black" />
  <path d=""  style="fill:black" />
  <path d=""  style="fill:black" />
  <path d=""  style="fill:black" />
  <path d=""  style="fill:black" />
  <path d=""  style="fill:black" />
  <path d=""  style="fill:black" />
  <path d=""  style="fill:black" />
  <path d="M121.430504 16.853039 L145.880390 7.612047 "  style="fill:black" />
  <path d="M151.445640 7.792336 L129.509995 16.083055 L138.268343 17.084292 L157.478495 9.823691 L151.445640 7.792336 L145.880390 7.612047 L172.410062 1.921472 L175.247202 2.686937 L151.445640 7.792336 "  style="fill:black" />
  <path d="M163.920856 13.686547 L147.621201 19.847107 L157.478495 24.344892 L170.710678 19.343704 L163.920856 13.686547 L157.478495 9.823691 L178.322725 5.352635 L181.607012 9.892893 L163.920856 13.686547 "  style="fill:black" />
  <path d="M177.782573 26.740679 L167.745295 30.534333 L178.322725 38.355820 L185.068433 35.806237 L177.782573 26.740679 L170.710678 19.343704 L185.068433 16.263987 L188.673654 24.404558 L177.782573 26.740679 "  style="fill:black" />
  <path d="M192.498093 46.453070 L189.108919 47.734030 L200.000000 58.578644 L200.000000 58.578644 L192.498093 46.453070 L185.068433 35.806237 L192.387953 34.236210 L196.175561 45.664258 L192.498093 46.453070 "  style="fill:black" />
  <path d=""  style="fill:black" />
  <path d=""  style="fill:black" />
  <path d=""  style="fill:black" />
  <path d=""  style="fill:black" />
  <path d=""  style="fill:black" />
  <path d=""  style="fill:black" />
  <path d=""  style="fill:black" />
  <path d=""  style="fill:black" />
  <path d=""  style="fill:black" />
  <path d=""  style="fill:black" />
  <path d="M61.731657 56.102356 "  style="fill:black" />
  <path d="M90.679813 32.982196 L71.453060 49.548200 L82.412440 44.442977 L100.000000 29.289322 L90.679813 32.982196 M90.679813 32.982196 "  style="fill:black" />
  <path d="M110.283241 27.240485 L94.504252 40.835853 L107.612047 38.761567 L121.430504 26.855416 L110.283241 27.240485 L100.000000 29.289322 L121.430504 16.853039 L129.509995 16.083055 L110.283241 27.240485 "  style="fill:black" />
  <path d="M133.334434 28.137825 L121.609588 38.240095 L136.362071 39.276459 L145.880390 31.075360 L133.334434 28.137825 L121.430504 26.855416 L138.268343 17.084292 L147.621201 19.847107 L133.334434 28.137825 "  style="fill:black" />
  <path d="M158.947547 35.639732 L151.727422 41.860679 L167.557665 45.967867 L172.410062 41.786983 L158.947547 35.639732 L145.880390 31.075360 L157.478495 24.344892 L167.745295 30.534333 L158.947547 35.639732 "  style="fill:black" />
  <path d="M186.138283 49.457912 L183.700345 51.558469 L200.000000 58.578644 L200.000000 58.578644 L186.138283 49.457912 L172.410062 41.786983 L178.322725 38.355820 L189.108919 47.734030 L186.138283 49.457912 "  style="fill:black" />
  <path d=""  style="fill:black" />
  <path d=""  style="fill:black" />
  <path d=""  style="fill:black" />
  <path d=""  style="fill:black" />
  <path d=""  style="fill:black" />
  <path d=""  style="fill:black" />
  <path d=""  style="fill:black" />
  <path d=""  style="fill:black" />
  <path d="M7.612047 145.350257 "  style="fill:black" />
  <path d="M12.289401 132.545623 L18.774511 120.390611 L29.289322 95.880390 "  style="fill:black" />
  <path d="M37.042199 85.605199 L27.004921 109.002281 L36.901369 98.490309 L46.364449 76.431693 L37.042199 85.605199 L29.289322 95.880390 M37.042199 85.605199 "  style="fill:black" />
  <path d="M57.166293 68.448217 L48.368545 88.955931 L61.296015 80.490968 L69.343704 61.731657 L57.166293 68.448217 L46.364449 76.431693 L61.731657 56.102356 L71.453060 49.548200 L57.166293 68.448217 "  style="fill:black" />
  <path d="M82.779406 56.346696 L75.559281 73.176942 L91.020979 67.084292 L97.344007 52.345195 L82.779406 56.346696 L69.343704 61.731657 L82.412440 44.442977 L94.504252 40.835853 L82.779406 56.346696 "  style="fill:black" />
  <path d="M112.897241 49.765691 L107.532204 62.271692 L124.933944 58.785491 L129.289322 48.633025 L112.897241 49.765691 L97.344007 52.345195 L107.612047 38.761567 L121.609588 38.240095 L112.897241 49.765691 "  style="fill:black" />
  <path d="M146.362386 48.958106 L143.058612 56.659264 L161.731657 55.913486 L163.952009 50.737803 L146.362386 48.958106 L129.289322 48.633025 L136.362071 39.276459 L151.727422 41.860679 L146.362386 48.958106 "  style="fill:black" />
  <path d="M181.888794 53.954977 L180.773246 56.555339 L200.000000 58.578644 L200.000000 58.578644 L181.888794 53.954977 L163.952009 50.737803 L167.557665 45.967867 L183.700345 51.558469 L181.888794 53.954977 "  style="fill:black" />
  <path d=""  style="fill:black" />
  <path d=""  style="fill:black" />
  <path d=""  style="fill:black" />
  <path d=""  style="fill:black" />
  <path d=""  style="fill:black" />
  <path d=""  style="fill:black" />
  <path d=""  style="fill:black" />
  <path d="M4.787494 241.318802 L3.842944 227.589938 "  style="fill:black" />
  <path d="M0.963055 186.138283 L4.787494 213.595368 L7.612047 199.469867 L3.842944 172.410062 L0.963055 186.138283 M0.963055 186.138283 "  style="fill:black" />
  <path d="M8.611933 158.947547 L12.289401 185.349472 L18.774511 171.370169 L15.224093 145.880390 L8.611933 158.947547 L3.842944 172.410062 L7.612047 145.350257 L12.289401 132.545623 L8.611933 158.947547 "  style="fill:black" />
  <path d="M23.615747 133.334434 L27.004921 157.666587 L36.901369 144.370699 L33.706078 121.430504 L23.615747 133.334434 L15.224093 145.880390 L18.774511 120.390611 L27.004921 109.002281 L23.615747 133.334434 "  style="fill:black" />
  <path d="M45.397909 110.283241 L48.368545 131.610552 L61.296015 119.509032 L58.578644 100.000000 L45.397909 110.283241 L33.706078 121.430504 L36.901369 98.490309 L48.368545 88.955931 L45.397909 110.283241 "  style="fill:black" />
  <path d="M73.121343 90.679813 L75.559281 108.182685 L91.020979 97.740588 L88.885953 82.412440 L73.121343 90.679813 L58.578644 100.000000 L61.296015 80.490968 L75.559281 73.176942 L73.121343 90.679813 "  style="fill:black" />
  <path d="M105.720653 75.277499 L107.532204 88.283305 L124.933944 79.901916 L123.463314 69.343704 L105.720653 75.277499 L88.885953 82.412440 L91.020979 67.084292 L107.532204 62.271692 L105.720653 75.277499 "  style="fill:black" />
  <path d="M141.943065 64.668200 L143.058612 72.677136 L161.731657 66.678545 L160.981936 61.296015 L141.943065 64.668200 L123.463314 69.343704 L124.933944 58.785491 L143.058612 56.659264 L141.943065 64.668200 "  style="fill:black" />
  <path d="M180.396572 59.259626 L180.773246 61.963913 L200.000000 58.578644 L200.000000 58.578644 L180.396572 59.259626 L160.981936 61.296015 L161.731657 55.913486 L180.773246 56.555339 L180.396572 59.259626 "  style="fill:black" />
  <path d=""  style="fill:black" />
  <path d=""  style="fill:black" />
  <path d=""  style="fill:black" />
  <path d=""  style="fill:black" />
  <path d=""  style="fill:black" />
  <path d="M53.341854 335.957675 L46.364449 326.708359 "  style="fill:black" />
  <path d="M23.180482 292.841691 L40.866638 316.238772 L36.901369 304.649743 L18.774511 280.669655 L23.180482 292.841691 M23.180482 292.841691 "  style="fill:black" />
  <path d="M16.113840 267.720726 L34.506828 292.052879 L33.706078 278.569496 L15.224093 254.119610 L16.113840 267.720726 L18.774511 280.669655 M4.787494 241.318802 L16.113840 267.720726 "  style="fill:black" />
  <path d="M16.113840 239.997292 L34.506828 264.329445 L36.901369 249.469867 L18.774511 225.489779 L16.113840 239.997292 L15.224093 254.119610 L3.842944 227.589938 L4.787494 213.595368 L16.113840 239.997292 "  style="fill:black" />
  <path d="M23.180482 210.736785 L40.866638 234.133867 L46.364449 218.469139 L29.289322 195.880390 L23.180482 210.736785 L18.774511 225.489779 L7.612047 199.469867 L12.289401 185.349472 L23.180482 210.736785 "  style="fill:black" />
  <path d="M37.042199 181.063669 L53.341854 202.626543 L61.731657 186.758652 L46.364449 166.429315 L37.042199 181.063669 L29.289322 195.880390 L18.774511 171.370169 L27.004921 157.666587 L37.042199 181.063669 "  style="fill:black" />
  <path d="M57.166293 152.118266 L71.453060 171.018283 L82.412440 155.557023 L69.343704 138.268343 L57.166293 152.118266 L46.364449 166.429315 L36.901369 144.370699 L48.368545 131.610552 L57.166293 152.118266 "  style="fill:black" />
  <path d="M82.779406 125.012930 L94.504252 140.523774 L107.612047 126.063313 L97.344007 112.479684 L82.779406 125.012930 L69.343704 138.268343 L61.296015 119.509032 L75.559281 108.182685 L82.779406 125.012930 "  style="fill:black" />
  <path d="M112.897241 100.789306 L121.609588 112.314903 L136.362071 99.410948 L129.289322 90.054382 L112.897241 100.789306 L97.344007 112.479684 L91.020979 97.740588 L107.532204 88.283305 L112.897241 100.789306 "  style="fill:black" />
  <path d="M146.362386 80.378293 L151.727422 87.475721 L167.557665 76.624164 L163.952009 71.854228 L146.362386 80.378293 L129.289322 90.054382 L124.933944 79.901916 L143.058612 72.677136 L146.362386 80.378293 "  style="fill:black" />
  <path d="M181.888794 64.564276 L183.700345 66.960784 L200.000000 58.578644 L200.000000 58.578644 L181.888794 64.564276 L163.952009 71.854228 L161.731657 66.678545 L180.773246 61.963913 L181.888794 64.564276 "  style="fill:black" />
  <path d=""  style="fill:black" />
  <path d=""  style="fill:black" />
  <path d=""  style="fill:black" />
  <path d=""  style="fill:black" />
  <path d="M114.107680 380.613172 L107.612047 376.339979 L82.412440 361.716457 "  style="fill:black" />
  <path d="M75.277499 354.857692 L102.006160 370.368536 L97.344007 362.756350 L69.343704 346.507563 L75.277499 354.857692 L82.412440 361.716457 M53.341854 335.957675 L75.277499 354.857692 "  style="fill:black" />
  <path d="M64.668200 336.746486 L93.670487 353.576732 L91.020979 342.918086 L61.296015 325.668466 L64.668200 336.746486 L69.343704 346.507563 L46.364449 326.708359 L40.866638 316.238772 L64.668200 336.746486 "  style="fill:black" />
  <path d="M59.259626 313.380190 L89.420998 330.883061 L88.885953 317.587560 L58.578644 300.000000 L59.259626 313.380190 L61.296015 325.668466 L36.901369 304.649743 L34.506828 292.052879 L59.259626 313.380190 "  style="fill:black" />
  <path d="M59.259626 285.656756 L89.420998 303.159627 L91.020979 287.738210 L61.296015 270.488590 L59.259626 285.656756 L58.578644 300.000000 L33.706078 278.569496 L34.506828 264.329445 L59.259626 285.656756 "  style="fill:black" />
  <path d="M64.668200 254.641581 L93.670487 271.471827 L97.344007 254.517130 L69.343704 238.268343 L64.668200 254.641581 L61.296015 270.488590 L36.901369 249.469867 L40.866638 234.133867 L64.668200 254.641581 "  style="fill:black" />
  <path d="M75.277499 221.526561 L102.006160 237.037404 L107.612047 219.200987 L82.412440 204.577465 L75.277499 221.526561 L69.343704 238.268343 L46.364449 218.469139 L53.341854 202.626543 L75.277499 221.526561 "  style="fill:black" />
  <path d="M90.679813 187.584287 L114.107680 201.179655 L121.430504 183.146961 L100.000000 170.710678 L90.679813 187.584287 L82.412440 204.577465 L61.731657 186.758652 L71.453060 171.018283 L90.679813 187.584287 "  style="fill:black" />
  <path d="M110.283241 154.119142 L129.509995 165.276572 L138.268343 147.740588 L121.430504 137.969463 L110.283241 154.119142 L100.000000 170.710678 L82.412440 155.557023 L94.504252 140.523774 L110.283241 154.119142 "  style="fill:black" />
  <path d="M133.334434 122.417172 L147.621201 130.707891 L157.478495 114.342515 L145.880390 107.612047 L133.334434 122.417172 L121.430504 137.969463 L107.612047 126.063313 L121.609588 112.314903 L133.334434 122.417172 "  style="fill:black" />
  <path d="M158.947547 93.696668 L167.745295 98.802067 L178.322725 84.236210 L172.410062 80.805048 L158.947547 93.696668 L145.880390 107.612047 L136.362071 99.410948 L151.727422 87.475721 L158.947547 93.696668 "  style="fill:black" />
  <path d="M186.138283 69.061340 L189.108919 70.785223 L200.000000 58.578644 L200.000000 58.578644 L186.138283 69.061340 L172.410062 80.805048 L167.557665 76.624164 L183.700345 66.960784 L186.138283 69.061340 "  style="fill:black" />
  <path d=""  style="fill:black" />
  <path d=""  style="fill:black" />
  <path d=""  style="fill:black" />
  <path d=""  style="fill:black" />
  <path d="M140.836341 390.715442 L169.838628 396.936389 L167.557665 393.897644 L136.362071 387.206236 L140.836341 390.715442 M114.107680 380.613172 L140.836341 390.715442 "  style="fill:black" />
  <path d="M132.500669 381.894132 L165.589139 388.991559 L163.952009 382.265382 L129.289322 374.830288 L132.500669 381.894132 L136.362071 387.206236 L107.612047 376.339979 L102.006160 370.368536 L132.500669 381.894132 "  style="fill:black" />
  <path d="M126.758958 366.082733 L162.662040 373.783890 L161.731657 363.628764 L124.933944 355.735710 L126.758958 366.082733 L129.289322 374.830288 L97.344007 362.756350 L93.670487 353.576732 L126.758958 366.082733 "  style="fill:black" />
  <path d="M123.831859 343.888868 L161.169818 351.897804 L160.981936 338.703985 L123.463314 330.656296 L123.831859 343.888868 L124.933944 355.735710 L91.020979 342.918086 L89.420998 330.883061 L123.831859 343.888868 "  style="fill:black" />
  <path d="M123.831859 316.165434 L161.169818 324.174370 L161.731657 308.448888 L124.933944 300.555834 L123.831859 316.165434 L123.463314 330.656296 L88.885953 317.587560 L89.420998 303.159627 L123.831859 316.165434 "  style="fill:black" />
  <path d="M126.758958 283.977827 L162.662040 291.678985 L163.952009 274.026162 L129.289322 266.591068 L126.758958 283.977827 L124.933944 300.555834 L91.020979 287.738210 L93.670487 271.471827 L126.758958 283.977827 "  style="fill:black" />
  <path d="M132.500669 248.563000 L165.589139 255.660428 L167.557665 236.758652 L136.362071 230.067244 L132.500669 248.563000 L129.289322 266.591068 L97.344007 254.517130 L102.006160 237.037404 L132.500669 248.563000 "  style="fill:black" />
  <path d="M140.836341 211.281924 L169.838628 217.502871 L172.410062 198.078528 L145.880390 192.387953 L140.836341 211.281924 L136.362071 230.067244 L107.612047 219.200987 L114.107680 201.179655 L140.836341 211.281924 "  style="fill:black" />
  <path d="M151.445640 173.567290 L175.247202 178.672690 L178.322725 159.472245 L157.478495 155.001189 L151.445640 173.567290 L145.880390 192.387953 L121.430504 183.146961 L129.509995 165.276572 L151.445640 173.567290 "  style="fill:black" />
  <path d="M163.920856 136.868451 L181.607012 140.662104 L185.068433 122.423420 L170.710678 119.343704 L163.920856 136.868451 L157.478495 155.001189 L138.268343 147.740588 L147.621201 130.707891 L163.920856 136.868451 "  style="fill:black" />
  <path d="M177.782573 102.595721 L188.673654 104.931841 L192.387953 88.355820 L185.068433 86.785794 L177.782573 102.595721 L170.710678 119.343704 L157.478495 114.342515 L167.745295 98.802067 L177.782573 102.595721 "  style="fill:black" />
  <path d="M192.498093 72.066183 L196.175561 72.854994 L200.000000 58.578644 L200.000000 58.578644 L192.498093 72.066183 L185.068433 86.785794 L178.322725 84.236210 L189.108919 70.785223 L192.498093 72.066183 "  style="fill:black" />
</svg>
